<?xml version="1.0" encoding="UTF-8"?>
<svg width="24px" height="24px" viewBox="0 0 24 24" version="1.1" xmlns="http://www.w3.org/2000/svg" xmlns:xlink="http://www.w3.org/1999/xlink">
    <!-- Generator: Sketch 52.5 (67469) - http://www.bohemiancoding.com/sketch -->
    <title>Icons/Coin</title>
    <desc>Created with Sketch.</desc>
    <defs>
        <path d="M12,20 C16.411,20 20,16.411 20,12 C20,7.589 16.411,4 12,4 C7.589,4 4,7.589 4,12 C4,16.411 7.589,20 12,20 Z M12,2 C17.514,2 22,6.486 22,12 C22,17.514 17.514,22 12,22 C6.486,22 2,17.514 2,12 C2,6.486 6.486,2 12,2 Z M14.0981,11.8032 C14.7171,12.2692 15.0581,12.9332 15.0581,13.6722 C15.0481,14.9132 14.1171,15.9392 12.8331,16.2442 L12.8331,16.7292 C12.8331,17.6902 12.0111,17.7012 11.9761,17.7012 L11.6601,17.7012 L11.3771,17.4542 C11.1271,17.2002 11.1331,16.8912 11.1361,16.7602 L11.1361,16.2132 C10.2181,15.9582 9.5201,15.3912 9.2251,15.1202 C8.9031,14.8332 8.8471,14.3202 9.1061,13.9602 L9.3131,13.6702 L9.7411,13.6132 C9.9731,13.6062 10.1871,13.6752 10.3571,13.8272 C10.5471,14.0002 11.2041,14.5522 11.9421,14.6062 L12.0831,14.6042 C12.4351,14.5982 12.7751,14.4802 13.0261,14.2722 C13.1741,14.1492 13.3531,13.9442 13.3531,13.6722 C13.3531,13.5112 13.3061,13.3662 13.0741,13.1882 C12.8461,13.0112 12.4601,12.8612 11.9211,12.7412 L11.7351,12.7042 C11.0421,12.5502 10.4831,12.3122 10.0601,11.9942 C9.4691,11.5502 9.1431,10.9192 9.1431,10.2162 C9.1541,9.0792 9.9721,8.1352 11.1361,7.8102 L11.1361,7.2692 C11.1331,7.1072 11.1271,6.7982 11.3771,6.5442 L11.5981,6.3192 L11.9761,6.2982 C12.0111,6.2982 12.8331,6.3092 12.8331,7.2692 L12.8331,7.8102 C13.5041,8.0032 14.0201,8.3892 14.3921,8.6692 C14.7421,8.9062 14.8501,9.4192 14.6111,9.8172 L14.4521,10.0812 L14.0981,10.2012 C13.8651,10.2592 13.6161,10.2172 13.4161,10.0822 C12.8981,9.7012 12.5151,9.4432 12.0521,9.4242 L11.8861,9.4252 C11.6211,9.4422 11.3251,9.5502 11.1181,9.7202 C11.0211,9.8002 10.8491,9.9782 10.8491,10.2162 C10.8491,10.3272 10.8671,10.4422 11.0851,10.6102 C11.2901,10.7692 11.6181,10.9032 12.0591,11.0082 L12.2341,11.0432 C13.0461,11.2252 13.6311,11.4642 14.0881,11.7952 L14.0981,11.8032 Z" id="path-1"></path>
    </defs>
    <g id="Icons/Coin" stroke="none" stroke-width="1" fill="none" fill-rule="evenodd">
        <mask id="mask-2" fill="white">
            <use xlink:href="#path-1"></use>
        </mask>
        <use id="Combined-Shape" fill="#000000" xlink:href="#path-1"></use>
        <g id="Colors/Grey/Grey-1" mask="url(#mask-2)" fill="#2E2D37">
            <rect id="Rectangle" x="0" y="0" width="24" height="24"></rect>
        </g>
    </g>
</svg>