<?xml version="1.0" encoding="UTF-8"?>
<svg width="24px" height="24px" viewBox="0 0 24 24" version="1.1" xmlns="http://www.w3.org/2000/svg" xmlns:xlink="http://www.w3.org/1999/xlink">
    <!-- Generator: Sketch 52.5 (67469) - http://www.bohemiancoding.com/sketch -->
    <title>Icons/Image Copy</title>
    <desc>Created with Sketch.</desc>
    <defs>
        <path d="M20.9229,3.6182 C20.9739,3.7402 20.9999,3.8702 20.9999,4.0002 L20.9999,7.0002 C20.9999,7.5522 20.5529,8.0002 19.9999,8.0002 C19.4469,8.0002 18.9999,7.5522 18.9999,7.0002 L18.9999,6.4142 L13.2069,12.2072 C12.8169,12.5972 12.1839,12.5972 11.7929,12.2072 L8.4999,8.9142 L4.7069,12.7072 C4.5119,12.9022 4.2559,13.0002 3.9999,13.0002 C3.7439,13.0002 3.4879,12.9022 3.2929,12.7072 C2.9019,12.3162 2.9019,11.6832 3.2929,11.2932 L7.7929,6.7932 C8.1839,6.4022 8.8169,6.4022 9.2069,6.7932 L12.4999,10.0862 L17.5859,5.0002 L16.9999,5.0002 C16.4469,5.0002 15.9999,4.5522 15.9999,4.0002 C15.9999,3.4482 16.4469,3.0002 16.9999,3.0002 L19.9999,3.0002 C20.1299,3.0002 20.2599,3.0262 20.3819,3.0772 C20.6269,3.1792 20.8209,3.3732 20.9229,3.6182 Z M4,15 C4.553,15 5,15.448 5,16 L5,20 C5,20.552 4.553,21 4,21 C3.447,21 3,20.552 3,20 L3,16 C3,15.448 3.447,15 4,15 Z M8,12 C8.553,12 9,12.448 9,13 L9,20 C9,20.552 8.553,21 8,21 C7.447,21 7,20.552 7,20 L7,13 C7,12.448 7.447,12 8,12 Z M16,12 C16.553,12 17,12.448 17,13 L17,20 C17,20.552 16.553,21 16,21 C15.447,21 15,20.552 15,20 L15,13 C15,12.448 15.447,12 16,12 Z M20,10 C20.553,10 21,10.448 21,11 L21,20 C21,20.552 20.553,21 20,21 C19.447,21 19,20.552 19,20 L19,11 C19,10.448 19.447,10 20,10 Z M12,15 C12.553,15 13,15.448 13,16 L13,20 C13,20.552 12.553,21 12,21 C11.447,21 11,20.552 11,20 L11,16 C11,15.448 11.447,15 12,15 Z" id="path-1"></path>
    </defs>
    <g id="Icons/Image-Copy" stroke="none" stroke-width="1" fill="none" fill-rule="evenodd">
        <mask id="mask-2" fill="white">
            <use xlink:href="#path-1"></use>
        </mask>
        <use id="Combined-Shape" fill="#000000" xlink:href="#path-1"></use>
        <g id="Colors/Grey/Grey-1" mask="url(#mask-2)" fill="#2E2D37">
            <rect id="Rectangle" x="0" y="0" width="24" height="24"></rect>
        </g>
    </g>
</svg>