<?xml version="1.0" encoding="UTF-8"?>
<svg width="24px" height="24px" viewBox="0 0 24 24" version="1.1" xmlns="http://www.w3.org/2000/svg" xmlns:xlink="http://www.w3.org/1999/xlink">
    <!-- Generator: Sketch 52.5 (67469) - http://www.bohemiancoding.com/sketch -->
    <title>Icons/Car/Shield</title>
    <desc>Created with Sketch.</desc>
    <defs>
        <path d="M18,18.9644 C19.834,18.3654 20.743,15.6084 20.758,14.0904 C20.014,13.8474 18.895,13.3764 18,12.5544 C17.105,13.3764 15.986,13.8474 15.242,14.0904 C15.262,15.6214 16.171,18.3664 18,18.9644 Z M21.951,12.3484 C22.42,12.4414 22.758,12.8524 22.758,13.3294 L22.758,14.0004 C22.779,15.8554 21.665,20.2054 18.218,20.9764 C18.146,20.9924 18.073,21.0004 18,21.0004 C17.927,21.0004 17.854,20.9924 17.782,20.9764 C14.336,20.2054 13.222,15.8554 13.242,13.9894 L13.242,13.3294 C13.242,12.8524 13.58,12.4414 14.049,12.3484 C14.674,12.2214 16.454,11.6394 17.141,10.4874 C17.502,9.8824 18.498,9.8824 18.859,10.4874 C19.681,11.8664 21.929,12.3444 21.951,12.3484 Z M11,12 L5,12 L5,13 L7,13 C7.552,13 8,13.448 8,14 C8,14.552 7.552,15 7,15 L5,15 L5,16 L5.5,16 L11,16 C11.552,16 12,16.448 12,17 C12,17.552 11.552,18 11,18 L7,18 L7,18.5 C7,19.325 6.325,20 5.5,20 L4.5,20 C3.675,20 3,19.325 3,18.5 L3,17.5 C3,17.39 3.014,17.284 3.036,17.18 C3.025,17.12 3,17.064 3,17 L3,11 C3,10.986 3.007,10.975 3.008,10.961 C3.012,10.857 3.033,10.755 3.069,10.656 C3.078,10.634 3.083,10.612 3.092,10.59 C3.098,10.578 3.1,10.565 3.105,10.553 L6.105,4.553 C6.275,4.214 6.621,4 7,4 L17,4 C17.379,4 17.725,4.214 17.895,4.553 L18.895,6.553 C19.142,7.047 18.941,7.647 18.447,7.895 C17.953,8.142 17.353,7.941 17.105,7.447 L16.382,6 L7.618,6 L5.618,10 L11,10 C11.552,10 12,10.448 12,11 C12,11.552 11.552,12 11,12 Z" id="path-1"></path>
    </defs>
    <g id="Icons/Car/Shield" stroke="none" stroke-width="1" fill="none" fill-rule="evenodd">
        <mask id="mask-2" fill="white">
            <use xlink:href="#path-1"></use>
        </mask>
        <use id="Combined-Shape" fill="#000000" xlink:href="#path-1"></use>
        <g id="Colors/Grey/Grey-1" mask="url(#mask-2)" fill="#2E2D37">
            <rect id="Rectangle" x="0" y="0" width="24" height="24"></rect>
        </g>
    </g>
</svg>