<?xml version="1.0" encoding="UTF-8"?>
<svg width="24px" height="24px" viewBox="0 0 24 24" version="1.1" xmlns="http://www.w3.org/2000/svg" xmlns:xlink="http://www.w3.org/1999/xlink">
    <!-- Generator: Sketch 52.5 (67469) - http://www.bohemiancoding.com/sketch -->
    <title>Icons/Autopago</title>
    <desc>Created with Sketch.</desc>
    <defs>
        <path d="M18.8674,8.6514 L18.8674,8.1754 C17.3374,7.7964 14.0434,6.7664 11.9344,4.5594 C9.8254,6.7664 6.5324,7.7964 5.0014,8.1754 L5.0014,8.6384 C4.9664,11.3984 5.5804,17.9354 11.9344,19.9284 C18.2884,17.9354 18.9024,11.3984 18.8674,8.6514 Z M20.0414,6.3874 C20.5194,6.4714 20.8674,6.8864 20.8674,7.3724 L20.8674,8.6384 C20.8994,11.1584 20.3694,19.6024 12.2094,21.9334 C12.1194,21.9594 12.0264,21.9724 11.9344,21.9724 C11.8424,21.9724 11.7494,21.9594 11.6594,21.9334 C3.4994,19.6024 2.9694,11.1584 3.0014,8.6264 L3.0014,7.3724 C3.0014,6.8874 3.3494,6.4724 3.8264,6.3874 C3.8794,6.3784 9.1034,5.4154 11.1024,2.4174 C11.4734,1.8604 12.3954,1.8604 12.7664,2.4174 C14.7724,5.4264 19.9884,6.3784 20.0414,6.3874 Z M11.905,6.6709 L11.906,6.6709 C11.959,6.6709 12.867,6.6879 12.867,7.7409 L12.867,8.2079 C13.528,8.4149 14.043,8.8019 14.387,9.0619 C14.782,9.3299 14.893,9.9049 14.632,10.3409 L14.453,10.6359 L14.064,10.7679 C13.795,10.8349 13.517,10.7879 13.295,10.6369 C12.783,10.2609 12.417,10.0139 11.982,9.9969 L11.821,9.9979 C11.573,10.0139 11.301,10.1179 11.116,10.2699 C11.046,10.3279 10.883,10.4849 10.883,10.6889 C10.883,10.7649 10.883,10.8509 11.081,11.0039 C11.275,11.1539 11.59,11.2819 12.017,11.3829 L12.188,11.4169 C13.009,11.6019 13.61,11.8459 14.081,12.1869 L14.093,12.1949 C14.737,12.6809 15.092,13.3729 15.092,14.1449 C15.082,15.3929 14.191,16.4479 12.867,16.7949 L12.867,17.2009 C12.867,18.2609 11.95,18.2739 11.911,18.2739 L11.557,18.2739 L11.246,18.0019 C10.96,17.7119 10.968,17.3619 10.97,17.2299 L10.97,16.7609 C10.088,16.4969 9.418,15.9649 9.092,15.6659 C8.729,15.3429 8.671,14.7749 8.96,14.3739 L9.191,14.0489 L9.662,13.9859 C9.676,13.9859 9.69,13.9859 9.703,13.9859 C9.961,13.9859 10.183,14.0679 10.358,14.2249 C10.539,14.3889 11.178,14.9269 11.884,14.9789 L12.016,14.9759 C12.345,14.9709 12.667,14.8579 12.897,14.6669 C13.03,14.5569 13.188,14.3769 13.188,14.1449 C13.188,14.0329 13.17,13.9099 12.948,13.7389 C12.73,13.5709 12.355,13.4269 11.834,13.3109 L11.65,13.2749 C10.946,13.1179 10.37,12.8739 9.934,12.5459 C9.318,12.0839 8.978,11.4239 8.978,10.6889 C8.989,9.5569 9.786,8.5679 10.97,8.2069 L10.97,7.7409 C10.968,7.5759 10.961,7.2299 11.24,6.9459 L11.488,6.6939 L11.905,6.6709 Z" id="path-1"></path>
    </defs>
    <g id="Icons/Autopago" stroke="none" stroke-width="1" fill="none" fill-rule="evenodd">
        <mask id="mask-2" fill="white">
            <use xlink:href="#path-1"></use>
        </mask>
        <use id="Combined-Shape" fill="#000000" xlink:href="#path-1"></use>
        <g id="Colors/Grey/Grey-1" mask="url(#mask-2)" fill="#2E2D37">
            <rect id="Rectangle" x="0" y="0" width="24" height="24"></rect>
        </g>
    </g>
</svg>