<?xml version="1.0" encoding="UTF-8"?>
<svg width="24px" height="24px" viewBox="0 0 24 24" version="1.1" xmlns="http://www.w3.org/2000/svg" xmlns:xlink="http://www.w3.org/1999/xlink">
    <!-- Generator: Sketch 52.3 (67297) - http://www.bohemiancoding.com/sketch -->
    <title>Icons/Gear</title>
    <desc>Created with Sketch.</desc>
    <defs>
        <path d="M11.9998528,13.25 C11.3052647,13.25 10.7397148,12.689 10.7397148,12 C10.7397148,11.311 11.3052647,10.75 11.9998528,10.75 C12.6944409,10.75 13.2599908,11.311 13.2599908,12 C13.2599908,12.689 12.6944409,13.25 11.9998528,13.25 M21.4956482,13.6857 C21.977525,13.9617 22.1428551,14.5737 21.8646166,15.0517 L19.5963681,18.9487 C19.3171215,19.4267 18.7021742,19.5907 18.2192893,19.3147 L16.500461,18.3297 C16.1153628,18.5987 15.70607,18.8327 15.2766149,19.0297 L15.2766149,20.9997 C15.2766149,21.5527 14.8249815,21.9997 14.2685045,21.9997 L9.73200759,21.9997 C9.17452252,21.9997 8.72389716,21.5527 8.72389716,20.9997 L8.72389716,19.0297 C8.29343401,18.8327 7.88514929,18.5987 7.49904299,18.3297 L5.78021471,19.3147 C5.2953136,19.5907 4.68137435,19.4267 4.40313587,18.9487 L2.13488741,15.0517 C2.00181683,14.8227 1.96451675,14.5497 2.03407637,14.2927 C2.10363599,14.0367 2.27299854,13.8187 2.50385583,13.6857 L4.22066788,12.7017 C4.19848945,12.4657 4.18740024,12.2327 4.18740024,11.9997 C4.18740024,11.7667 4.19848945,11.5337 4.22066788,11.2977 L2.50385583,10.3147 C2.27299854,10.1817 2.10363599,9.9637 2.03407637,9.7067 C1.96451675,9.4507 2.00181683,9.1777 2.13488741,8.9487 L4.40313587,5.0517 C4.68137435,4.5737 5.2953136,4.4097 5.78021471,4.6857 L7.49904299,5.6697 C7.88514929,5.4007 8.29343401,5.1667 8.72389716,4.9707 L8.72389716,2.9997 C8.72389716,2.4477 9.17452252,1.9997 9.73200759,1.9997 L14.2685045,1.9997 C14.8249815,1.9997 15.2766149,2.4477 15.2766149,2.9997 L15.2766149,4.9707 C15.70607,5.1667 16.1153628,5.4007 16.500461,5.6697 L18.2192893,4.6857 C18.7021742,4.4097 19.3171215,4.5737 19.5963681,5.0517 L21.8646166,8.9487 C22.1428551,9.4267 21.977525,10.0377 21.4956482,10.3137 L19.7788361,11.2977 C19.8010145,11.5337 19.8131119,11.7667 19.8131119,11.9997 C19.8131119,12.2327 19.8010145,12.4667 19.7788361,12.7027 L21.4956482,13.6857 Z M17.6950719,10.9497 C17.6174474,10.5337 17.8130208,10.1147 18.1819892,9.9027 L19.6145141,9.0827 L18.3543761,6.9177 L16.9218512,7.7387 C16.5518746,7.9497 16.0871357,7.9077 15.7625242,7.6317 C15.2231851,7.1747 14.6072296,6.8227 13.9317956,6.5847 C13.5285515,6.4437 13.2603941,6.0657 13.2603941,5.6417 L13.2603941,3.9997 L10.740118,3.9997 L10.740118,5.6417 C10.740118,6.0657 10.4709525,6.4437 10.0687165,6.5847 C9.39227438,6.8227 8.7763189,7.1747 8.23798794,7.6317 C7.91337638,7.9077 7.44863747,7.9507 7.07765283,7.7387 L5.64512792,6.9177 L4.38498988,9.0827 L5.8175148,9.9027 C6.18648322,10.1147 6.38205664,10.5337 6.30443214,10.9497 C6.23588063,11.3167 6.20362109,11.6607 6.20362109,11.9997 C6.20362109,12.3397 6.23588063,12.6827 6.30443214,13.0507 C6.38205664,13.4667 6.18648322,13.8857 5.8175148,14.0977 L4.38498988,14.9177 L5.64512792,17.0827 L7.07765283,16.2617 C7.44762936,16.0497 7.91035205,16.0917 8.23798794,16.3677 C8.7763189,16.8247 9.39227438,17.1777 10.0687165,17.4157 C10.4709525,17.5567 10.740118,17.9347 10.740118,18.3577 L10.740118,19.9997 L13.2603941,19.9997 L13.2603941,18.3577 C13.2603941,17.9347 13.5285515,17.5567 13.9317956,17.4157 C14.6072296,17.1777 15.2231851,16.8247 15.7625242,16.3677 C16.0871357,16.0927 16.5528827,16.0507 16.9218512,16.2617 L18.3543761,17.0817 L19.6145141,14.9177 L18.1819892,14.0967 C17.8130208,13.8857 17.6174474,13.4667 17.6950719,13.0507 C17.7636234,12.6827 17.796891,12.3397 17.796891,11.9997 C17.796891,11.6607 17.7636234,11.3167 17.6950719,10.9497 Z M11.9998528,8.75 C13.8063867,8.75 15.2762117,10.208 15.2762117,12 C15.2762117,13.792 13.8063867,15.25 11.9998528,15.25 C10.1933189,15.25 8.72349392,13.792 8.72349392,12 C8.72349392,10.208 10.1933189,8.75 11.9998528,8.75 Z" id="path-1"></path>
    </defs>
    <g id="Icons/Gear" stroke="none" stroke-width="1" fill="none" fill-rule="evenodd">
        <mask id="mask-2" fill="white">
            <use xlink:href="#path-1"></use>
        </mask>
        <use id="Combined-Shape" fill="#000000" xlink:href="#path-1"></use>
        <g id="Colors/Grey/Grey-1" mask="url(#mask-2)" fill="#2E2D37">
            <rect id="Rectangle" x="0" y="0" width="24" height="24"></rect>
        </g>
    </g>
</svg>