<?xml version="1.0" encoding="UTF-8"?>
<svg width="24px" height="24px" viewBox="0 0 24 24" version="1.1" xmlns="http://www.w3.org/2000/svg" xmlns:xlink="http://www.w3.org/1999/xlink">
    <!-- Generator: Sketch 52.3 (67297) - http://www.bohemiancoding.com/sketch -->
    <title>Icons/Steering Wheel</title>
    <desc>Created with Sketch.</desc>
    <defs>
        <path d="M14.9209,18.353 C14.9619,17.184 15.2349,15.579 16.3069,14.507 C17.1159,13.698 18.0799,13.308 18.9009,13.123 C18.5239,15.451 16.9979,17.394 14.9209,18.353 M11.0749,18.932 C11.0959,17.426 10.8349,14.857 9.0699,13.093 C7.7849,11.808 6.2529,11.291 5.0669,11.088 C5.1169,10.701 5.1939,10.321 5.3059,9.957 C6.6479,9.735 9.1439,9.4 11.9999,9.4 C14.8119,9.4 17.2449,9.715 18.6929,9.955 C18.8049,10.319 18.8819,10.696 18.9329,11.082 C17.7349,11.28 16.1899,11.796 14.8929,13.093 C13.1279,14.858 12.8839,17.425 12.9159,18.933 C12.6149,18.973 12.3109,19 11.9999,19 C11.6859,19 11.3789,18.972 11.0749,18.932 M5.0999,13.131 C5.9109,13.319 6.8589,13.71 7.6559,14.507 C8.7269,15.578 9.0139,17.176 9.0649,18.346 C6.9979,17.386 5.4789,15.45 5.0999,13.131 M11.9999,5 C14.2689,5 16.2829,6.09 17.5629,7.768 C16.0799,7.575 14.1479,7.4 11.9999,7.4 C9.8559,7.4 7.9249,7.574 6.4379,7.768 C7.7179,6.089 9.7319,5 11.9999,5 M11.9999,3 C16.9709,3 20.9999,7.029 20.9999,12 C20.9999,16.971 16.9709,21 11.9999,21 C7.0289,21 2.9999,16.971 2.9999,12 C2.9999,7.029 7.0289,3 11.9999,3 Z M13.7998,12 C13.7998,11.006 12.9938,10.2 11.9998,10.2 C11.0058,10.2 10.1998,11.006 10.1998,12 C10.1998,12.994 11.0058,13.8 11.9998,13.8 C12.9938,13.8 13.7998,12.994 13.7998,12 Z" id="path-1"></path>
    </defs>
    <g id="Icons/Steering-Wheel" stroke="none" stroke-width="1" fill="none" fill-rule="evenodd">
        <mask id="mask-2" fill="white">
            <use xlink:href="#path-1"></use>
        </mask>
        <use id="Combined-Shape" fill="#000000" xlink:href="#path-1"></use>
        <g id="Colors/Grey/Grey-1" mask="url(#mask-2)" fill="#2E2D37">
            <rect id="Rectangle" x="0" y="0" width="24" height="24"></rect>
        </g>
    </g>
</svg>