<?xml version="1.0" encoding="UTF-8"?>
<svg width="24px" height="24px" viewBox="0 0 24 24" version="1.1" xmlns="http://www.w3.org/2000/svg" xmlns:xlink="http://www.w3.org/1999/xlink">
    <!-- Generator: Sketch 52.3 (67297) - http://www.bohemiancoding.com/sketch -->
    <title>Icons/Odometer</title>
    <desc>Created with Sketch.</desc>
    <defs>
        <path d="M12,7 C7.589,7 4,10.589 4,15 C4,15.68 4.085,16.351 4.253,17 L19.747,17 C19.915,16.35 20,15.68 20,15 C20,10.589 16.411,7 12,7 Z M21.431,18.333 C21.427,18.343 21.419,18.35 21.415,18.359 C21.389,18.428 21.345,18.484 21.305,18.544 C21.271,18.593 21.247,18.647 21.207,18.689 C21.166,18.732 21.112,18.76 21.064,18.795 C21.008,18.836 20.957,18.881 20.895,18.909 C20.849,18.93 20.798,18.934 20.749,18.947 C20.671,18.969 20.596,18.993 20.514,18.995 C20.505,18.995 20.497,19 20.488,19 L3.521,19 C3.519,19 3.516,19.001 3.513,19.001 C3.388,19.001 3.269,18.971 3.155,18.927 C3.13,18.917 3.107,18.904 3.083,18.892 C2.997,18.85 2.919,18.798 2.848,18.733 C2.828,18.714 2.808,18.697 2.79,18.677 C2.72,18.604 2.663,18.519 2.618,18.423 C2.61,18.406 2.6,18.393 2.593,18.376 C2.586,18.361 2.575,18.35 2.57,18.334 C2.192,17.266 2,16.144 2,15 C2,9.486 6.486,5 12,5 C17.514,5 22,9.486 22,15 C22,16.143 21.809,17.264 21.431,18.333 Z M12,16 C11.744,16 11.488,15.902 11.293,15.707 C10.902,15.316 10.902,14.684 11.293,14.293 L15.293,10.293 C15.684,9.902 16.316,9.902 16.707,10.293 C17.098,10.684 17.098,11.316 16.707,11.707 L12.707,15.707 C12.512,15.902 12.256,16 12,16 Z" id="path-1"></path>
    </defs>
    <g id="Icons/Odometer" stroke="none" stroke-width="1" fill="none" fill-rule="evenodd">
        <mask id="mask-2" fill="white">
            <use xlink:href="#path-1"></use>
        </mask>
        <use id="Combined-Shape" fill="#000000" xlink:href="#path-1"></use>
        <g id="Colors/Grey/Grey-1" mask="url(#mask-2)" fill="#2E2D37">
            <rect id="Rectangle" x="0" y="0" width="24" height="24"></rect>
        </g>
    </g>
</svg>