<?xml version="1.0" encoding="UTF-8"?>
<svg width="24px" height="24px" viewBox="0 0 24 24" version="1.1" xmlns="http://www.w3.org/2000/svg" xmlns:xlink="http://www.w3.org/1999/xlink">
    <!-- Generator: Sketch 52.3 (67297) - http://www.bohemiancoding.com/sketch -->
    <title>Icons/Add Car</title>
    <desc>Created with Sketch.</desc>
    <defs>
        <path d="M22,15 C22.552,15 23,15.448 23,16 C23,16.552 22.552,17 22,17 L19,17 L19,20 C19,20.552 18.552,21 18,21 C17.448,21 17,20.552 17,20 L17,17 L14,17 C13.448,17 13,16.552 13,16 C13,15.448 13.448,15 14,15 L17,15 L17,12 C17,11.448 17.448,11 18,11 C18.552,11 19,11.448 19,12 L19,15 L22,15 Z M10,16 C10.552,16 11,16.448 11,17 C11,17.552 10.552,18 10,18 L6,18 L6,18.5 C6,19.325 5.325,20 4.5,20 L3.5,20 C2.675,20 2,19.325 2,18.5 L2,17.5 C2,17.39 2.014,17.284 2.036,17.18 C2.025,17.12 2,17.064 2,17 L2,11 C2,10.986 2.007,10.975 2.008,10.961 C2.012,10.857 2.033,10.755 2.069,10.656 C2.078,10.634 2.083,10.612 2.092,10.59 C2.098,10.578 2.1,10.565 2.105,10.553 L5.105,4.553 C5.275,4.214 5.621,4 6,4 L16,4 C16.379,4 16.725,4.214 16.895,4.553 L17.895,6.553 C18.142,7.047 17.941,7.647 17.447,7.895 C16.953,8.143 16.353,7.941 16.105,7.447 L15.382,6 L6.618,6 L4.618,10 L10,10 L14,10 C14.552,10 15,10.448 15,11 C15,11.552 14.552,12 14,12 L10,12 L4,12 L4,13 L6,13 C6.552,13 7,13.448 7,14 C7,14.552 6.552,15 6,15 L4,15 L4,16 L4.5,16 L10,16 Z" id="path-1"></path>
    </defs>
    <g id="Icons/Add-Car" stroke="none" stroke-width="1" fill="none" fill-rule="evenodd">
        <mask id="mask-2" fill="white">
            <use xlink:href="#path-1"></use>
        </mask>
        <use id="Combined-Shape" fill="#000000" xlink:href="#path-1"></use>
        <g id="Colors/Grey/Grey-1" mask="url(#mask-2)" fill="#2E2D37">
            <rect id="Rectangle" x="0" y="0" width="24" height="24"></rect>
        </g>
    </g>
</svg>