<?xml version="1.0" encoding="UTF-8"?>
<svg width="24px" height="24px" viewBox="0 0 24 24" version="1.1" xmlns="http://www.w3.org/2000/svg" xmlns:xlink="http://www.w3.org/1999/xlink">
    <!-- Generator: Sketch 52.3 (67297) - http://www.bohemiancoding.com/sketch -->
    <title>Icons/Perfil 2</title>
    <desc>Created with Sketch.</desc>
    <defs>
        <path d="M7.0649,18.2837 C8.2949,16.8487 10.0959,15.9997 11.9999,15.9997 C13.9119,15.9997 15.7089,16.8447 16.9379,18.2817 C15.5769,19.3537 13.8639,19.9997 11.9999,19.9997 C10.1379,19.9997 8.4259,19.3547 7.0649,18.2837 M8.9999,10.9997 C8.9999,9.3457 10.3459,7.9997 11.9999,7.9997 C13.6539,7.9997 14.9999,9.3457 14.9999,10.9997 C14.9999,12.6547 13.6539,13.9997 11.9999,13.9997 C10.3459,13.9997 8.9999,12.6547 8.9999,10.9997 M11.9999,3.9997 C16.4109,3.9997 19.9999,7.5887 19.9999,11.9997 C19.9999,13.8247 19.3789,15.5027 18.3479,16.8497 C17.5099,15.9087 16.4769,15.1847 15.3359,14.6967 C16.3499,13.7817 16.9999,12.4707 16.9999,10.9997 C16.9999,8.2427 14.7569,5.9997 11.9999,5.9997 C9.2429,5.9997 6.9999,8.2427 6.9999,10.9997 C6.9999,12.4717 7.6509,13.7837 8.6659,14.6987 C7.5249,15.1867 6.4919,15.9137 5.6549,16.8527 C4.6209,15.5047 3.9999,13.8257 3.9999,11.9997 C3.9999,7.5887 7.5889,3.9997 11.9999,3.9997 M11.9999,1.9997 C6.4769,1.9997 1.9999,6.4767 1.9999,11.9997 C1.9999,17.5227 6.4769,21.9997 11.9999,21.9997 C17.5229,21.9997 21.9999,17.5227 21.9999,11.9997 C21.9999,6.4767 17.5229,1.9997 11.9999,1.9997" id="path-1"></path>
    </defs>
    <g id="Icons/Perfil-2" stroke="none" stroke-width="1" fill="none" fill-rule="evenodd">
        <mask id="mask-2" fill="white">
            <use xlink:href="#path-1"></use>
        </mask>
        <use id="Fill-1" fill="#111010" xlink:href="#path-1"></use>
        <g id="Colors/Grey/Grey-1" mask="url(#mask-2)" fill="#2E2D37">
            <rect id="Rectangle" x="0" y="0" width="24" height="24"></rect>
        </g>
    </g>
</svg>