<?xml version="1.0" encoding="UTF-8"?>
<svg width="24px" height="24px" viewBox="0 0 24 24" version="1.1" xmlns="http://www.w3.org/2000/svg" xmlns:xlink="http://www.w3.org/1999/xlink">
    <!-- Generator: Sketch 52.3 (67297) - http://www.bohemiancoding.com/sketch -->
    <title>Icons/Plate</title>
    <desc>Created with Sketch.</desc>
    <defs>
        <path d="M20,16 L20,8 C20,7.449 19.551,7 19,7 L5,7 C4.449,7 4,7.449 4,8 L4,16 C4,16.551 4.449,17 5,17 L19,17 C19.551,17 20,16.551 20,16 Z M19,5 C20.654,5 22,6.346 22,8 L22,16 C22,17.654 20.654,19 19,19 L5,19 C3.346,19 2,17.654 2,16 L2,8 C2,6.346 3.346,5 5,5 L19,5 Z M8.707,12.293 C9.098,12.684 9.098,13.316 8.707,13.707 L8.414,14 L8.707,14.293 C9.098,14.684 9.098,15.316 8.707,15.707 C8.512,15.902 8.256,16 8,16 C7.744,16 7.488,15.902 7.293,15.707 L7,15.414 L6.707,15.707 C6.512,15.902 6.256,16 6,16 C5.744,16 5.488,15.902 5.293,15.707 C4.902,15.316 4.902,14.684 5.293,14.293 L5.586,14 L5.293,13.707 C4.902,13.316 4.902,12.684 5.293,12.293 C5.684,11.902 6.316,11.902 6.707,12.293 L7,12.586 L7.293,12.293 C7.684,11.902 8.316,11.902 8.707,12.293 Z M13.707,12.293 C14.098,12.684 14.098,13.316 13.707,13.707 L13.414,14 L13.707,14.293 C14.098,14.684 14.098,15.316 13.707,15.707 C13.512,15.902 13.256,16 13,16 C12.744,16 12.488,15.902 12.293,15.707 L12,15.414 L11.707,15.707 C11.512,15.902 11.256,16 11,16 C10.744,16 10.488,15.902 10.293,15.707 C9.902,15.316 9.902,14.684 10.293,14.293 L10.586,14 L10.293,13.707 C9.902,13.316 9.902,12.684 10.293,12.293 C10.684,11.902 11.316,11.902 11.707,12.293 L12,12.586 L12.293,12.293 C12.684,11.902 13.316,11.902 13.707,12.293 Z M18.707,12.293 C19.098,12.684 19.098,13.316 18.707,13.707 L18.414,14 L18.707,14.293 C19.098,14.684 19.098,15.316 18.707,15.707 C18.512,15.902 18.256,16 18,16 C17.744,16 17.488,15.902 17.293,15.707 L17,15.414 L16.707,15.707 C16.512,15.902 16.256,16 16,16 C15.744,16 15.488,15.902 15.293,15.707 C14.902,15.316 14.902,14.684 15.293,14.293 L15.586,14 L15.293,13.707 C14.902,13.316 14.902,12.684 15.293,12.293 C15.684,11.902 16.316,11.902 16.707,12.293 L17,12.586 L17.293,12.293 C17.684,11.902 18.316,11.902 18.707,12.293 Z M8,10 C7.448,10 7,9.552 7,9 C7,8.448 7.448,8 8,8 L16,8 C16.552,8 17,8.448 17,9 C17,9.552 16.552,10 16,10 L8,10 Z" id="path-1"></path>
    </defs>
    <g id="Icons/Plate" stroke="none" stroke-width="1" fill="none" fill-rule="evenodd">
        <mask id="mask-2" fill="white">
            <use xlink:href="#path-1"></use>
        </mask>
        <use id="Combined-Shape" fill="#000000" xlink:href="#path-1"></use>
        <g id="Colors/Grey/Grey-1" mask="url(#mask-2)" fill="#2E2D37">
            <rect id="Rectangle" x="0" y="0" width="24" height="24"></rect>
        </g>
    </g>
</svg>