<?xml version="1.0" encoding="UTF-8"?>
<svg width="24px" height="24px" viewBox="0 0 24 24" version="1.1" xmlns="http://www.w3.org/2000/svg" xmlns:xlink="http://www.w3.org/1999/xlink">
    <!-- Generator: Sketch 52.5 (67469) - http://www.bohemiancoding.com/sketch -->
    <title>Icons/WM1</title>
    <desc>Created with Sketch.</desc>
    <defs>
        <path d="M18.7672627,15.7175642 C19.7424207,14.4694372 20.1846095,12.9072782 20.0098815,11.3181165 C19.6506641,8.03878279 16.7495933,5.67254199 13.5361596,6.03657904 C11.7527625,6.2405998 10.6126378,6.92966992 9.40613596,7.65874412 C8.14789901,8.41882146 6.85744963,9.19790075 4.9569164,9.33691489 C5.6509478,9.98898125 6.72274312,10.6200455 8.28358166,10.6590494 C8.30505661,10.6600495 8.32653156,10.6610496 8.34800652,10.6630498 C10.7678431,10.8890728 11.2900749,12.4182285 11.3867122,13.3093191 C11.5653447,14.9504861 10.4056974,16.4346372 8.80190891,16.6176558 C8.78726689,16.6206561 8.65841718,16.6386579 8.44561993,16.6526594 C10.3871508,17.7337694 12.6195697,18.1838152 14.8402749,17.9307894 C16.3962328,17.7527713 17.7911285,16.9666913 18.7672627,15.7175642 Z M21.9504362,11.0950938 C22.1827562,13.2163097 21.5931711,15.3015219 20.2910081,16.9676914 C18.9898213,18.633861 17.1302857,19.6809675 15.0569767,19.9179917 C14.5806232,19.9729973 14.1052459,20 13.6298685,20 C11.1172992,20 8.64767971,19.2449232 6.55387191,17.8177779 C5.24975665,16.95369 4.32730986,15.6815605 4.28826449,15.6285551 C4.01885146,15.253517 4.03739801,14.7374645 4.33316666,14.3844285 C4.62991145,14.0303925 5.12285921,13.9323825 5.52697876,14.1484045 C6.85159283,14.8594769 8.54225722,14.6354541 8.55982763,14.6334539 C9.11915251,14.5694474 9.50570164,14.0753971 9.44713359,13.5303416 C9.41394503,13.2283109 9.36513832,12.7742647 8.20061026,12.6572528 C3.70551239,12.5252393 2.13979317,8.79185943 2.07439218,8.63284324 C1.93968567,8.29980935 1.99044465,7.91777048 2.2061703,7.63374157 C2.42189595,7.34871257 2.77428039,7.20569801 3.11983188,7.25870341 C5.59921268,7.63774198 6.84183149,6.88666555 8.41438364,5.93656886 C9.68335806,5.1694908 11.1212037,4.30040236 13.3194579,4.04937682 C17.5988301,3.56332735 21.4721305,6.72064865 21.9504362,11.0950938 Z M15,9 C15.552,9 16,9.448 16,10 L16,14 C16,14.552 15.552,15 15,15 C14.448,15 14,14.552 14,14 L14,10 C14,9.448 14.448,9 15,9 Z" id="path-1"></path>
    </defs>
    <g id="Icons/WM1" stroke="none" stroke-width="1" fill="none" fill-rule="evenodd">
        <mask id="mask-2" fill="white">
            <use xlink:href="#path-1"></use>
        </mask>
        <use id="Combined-Shape" fill="#000000" xlink:href="#path-1"></use>
        <g id="Colors/Grey/Grey-1" mask="url(#mask-2)" fill="#2E2D37">
            <rect id="Rectangle" x="0" y="0" width="24" height="24"></rect>
        </g>
    </g>
</svg>