<?xml version="1.0" encoding="UTF-8"?>
<svg width="24px" height="24px" viewBox="0 0 24 24" version="1.1" xmlns="http://www.w3.org/2000/svg" xmlns:xlink="http://www.w3.org/1999/xlink">
    <!-- Generator: Sketch 52.3 (67297) - http://www.bohemiancoding.com/sketch -->
    <title>Icons/Filter</title>
    <desc>Created with Sketch.</desc>
    <defs>
        <path d="M16,5 C16.552,5 17,5.449 17,6 C17,6.551 16.552,7 16,7 C15.448,7 15,6.551 15,6 C15,5.449 15.448,5 16,5 M4,7 C3.447,7 3,6.552 3,6 C3,5.448 3.447,5 4,5 L13.185,5 C13.599,3.838 14.698,3 16,3 C17.302,3 18.401,3.838 18.815,5 L20,5 C20.553,5 21,5.448 21,6 C21,6.552 20.553,7 20,7 L18.815,7 C18.401,8.162 17.302,9 16,9 C14.698,9 13.599,8.162 13.185,7 L4,7 Z M20,11 C20.553,11 21,11.448 21,12 C21,12.552 20.553,13 20,13 L10.815,13 C10.401,14.162 9.302,15 8,15 C6.698,15 5.599,14.162 5.185,13 L4,13 C3.447,13 3,12.552 3,12 C3,11.448 3.447,11 4,11 L5.185,11 C5.599,9.838 6.698,9 8,9 C9.302,9 10.401,9.838 10.815,11 L20,11 Z M8,13 C8.552,13 9,12.551 9,12 C9,11.449 8.552,11 8,11 C7.448,11 7,11.449 7,12 C7,12.551 7.448,13 8,13 Z M20,17 C20.553,17 21,17.448 21,18 C21,18.552 20.553,19 20,19 L18.815,19 C18.401,20.162 17.302,21 16,21 C14.698,21 13.599,20.162 13.185,19 L4,19 C3.447,19 3,18.552 3,18 C3,17.448 3.447,17 4,17 L13.185,17 C13.599,15.838 14.698,15 16,15 C17.302,15 18.401,15.838 18.815,17 L20,17 Z M16,19 C16.552,19 17,18.551 17,18 C17,17.449 16.552,17 16,17 C15.448,17 15,17.449 15,18 C15,18.551 15.448,19 16,19 Z" id="path-1"></path>
    </defs>
    <g id="Icons/Filter" stroke="none" stroke-width="1" fill="none" fill-rule="evenodd">
        <mask id="mask-2" fill="white">
            <use xlink:href="#path-1"></use>
        </mask>
        <use id="Combined-Shape" fill="#000000" xlink:href="#path-1"></use>
        <g id="Colors/Grey/Grey-1" mask="url(#mask-2)" fill="#2E2D37">
            <rect id="Rectangle" x="0" y="0" width="24" height="24"></rect>
        </g>
    </g>
</svg>