<?xml version="1.0" encoding="UTF-8" standalone="no"?>
<svg
   xmlns:dc="http://purl.org/dc/elements/1.1/"
   xmlns:cc="http://creativecommons.org/ns#"
   xmlns:rdf="http://www.w3.org/1999/02/22-rdf-syntax-ns#"
   xmlns:svg="http://www.w3.org/2000/svg"
   xmlns="http://www.w3.org/2000/svg"
   id="svg8"
   version="1.1"
   viewBox="0 0 6.8791664 3.9687501"
   height="15"
   width="26">
  <defs
     id="defs2" />
  <metadata
     id="metadata5">
    <rdf:RDF>
      <cc:Work
         rdf:about="">
        <dc:format>image/svg+xml</dc:format>
        <dc:type
           rdf:resource="http://purl.org/dc/dcmitype/StillImage" />
        <dc:title></dc:title>
      </cc:Work>
    </rdf:RDF>
  </metadata>
  <g
     transform="translate(0,-293.03124)"
     id="layer1">
    <path
       id="path962"
       d="m 0.96833122,296.90288 c -0.22601176,-0.0515 -0.3909651,-0.13744 -0.54576532,-0.28448 -0.4609518,-0.43786 -0.45835175,-1.16129 0.005372,-1.59677 0.1638467,-0.15374 0.36584551,-0.25375 0.580157,-0.2872 0.129283,-0.0202 0.3466458,-0.008 0.4686122,0.0274 0.3069252,0.0878 0.5905573,0.33434 0.7079145,0.61548 0.016546,0.0396 0.034811,0.0774 0.040612,0.084 0.00645,0.008 0.040612,0.005 0.086274,-0.004 0.1250715,-0.0267 0.1215582,-0.0245 0.1213325,-0.0774 -1.611e-4,-0.0372 -0.031158,-0.10129 -0.1365353,-0.28216 l -0.1363199,-0.23386 -0.3053458,-0.14698 c -0.2653027,-0.1277 -0.3166485,-0.14801 -0.3915774,-0.15486 -0.1511258,-0.0137 -0.309998,-0.0874 -0.51602584,-0.23916 -0.0935807,-0.0689 -0.26557134,-0.22358 -0.34276731,-0.30823 -0.0401828,-0.0441 -0.04953,-0.0477 -0.1428206,-0.0555 -0.1241582,-0.0108 -0.16904682,-0.0302 -0.16904682,-0.0741 0,-0.0247 0.0120333,-0.0385 0.0500672,-0.057 l 0.0500672,-0.0245 -0.0361,-0.0378 -0.0362074,-0.0377 h 0.21657848 c 0.38703277,0 0.68088239,0.0345 0.80299929,0.0942 0.029224,0.0143 0.079936,0.0598 0.1150043,0.10324 0.1881067,0.23305 0.4800655,0.36599 0.8014736,0.36492 0.2219182,-7.3e-4 0.2389476,-0.006 0.3567453,-0.11895 0.4483813,-0.42833 1.0404426,-0.52897 1.5787087,-0.26836 l 0.1155737,0.0559 -0.00752,-0.0426 c -0.00752,-0.0396 -0.0043,-0.045 0.049852,-0.0766 0.073704,-0.0432 0.2749402,-0.11704 0.2803445,-0.10281 0.00215,0.005 0.053183,0.1227 0.1132422,0.25952 l 0.109138,0.24875 0.066398,0.004 c 0.058663,0.003 0.068869,1.1e-4 0.087994,-0.0291 0.013752,-0.0211 0.039001,-0.0362 0.069514,-0.0417 0.069622,-0.0125 0.1188722,-0.041 0.1359982,-0.0787 0.020628,-0.0451 -0.01386,-0.10746 -0.089391,-0.16165 -0.087242,-0.0626 -0.3300141,-0.17401 -0.5472372,-0.25103 l -0.1949722,-0.069 -0.030728,-0.0661 c -0.043298,-0.093 -0.04029,-0.12716 0.015363,-0.17598 0.056299,-0.0494 0.1016389,-0.069 0.2409352,-0.10432 0.1002419,-0.0253 0.1110935,-0.0258 0.1685312,-0.006 0.033736,0.0111 0.1045391,0.0434 0.1573142,0.0715 0.052753,0.0281 0.09863,0.0513 0.1019614,0.0513 0.00322,0 0.027613,-0.0481 0.054042,-0.10659 l 0.048025,-0.10659 0.055117,0.0609 c 0.06801,0.0751 0.090357,0.15805 0.069299,0.25655 l -0.013967,0.0649 0.1346767,0.16703 c 0.194059,0.24065 0.4641321,0.6015 0.4882739,0.65237 0.034489,0.0727 0.00322,0.11943 -0.1104058,0.16347 -0.062208,0.0241 -0.061456,0.0221 -0.02138,0.0639 l 0.03567,0.0371 -0.062745,0.041 -0.062745,0.041 0.065431,2.5e-4 c 0.4044167,0.001 0.8158169,0.28377 0.9786429,0.6713 0.1777388,0.42302 0.074994,0.90867 -0.2595009,1.22639 -0.2224447,0.21129 -0.5083008,0.31544 -0.8167839,0.29757 -0.1706477,-0.01 -0.2612844,-0.0333 -0.4144408,-0.10713 -0.2834709,-0.13667 -0.4847391,-0.37417 -0.5834554,-0.68847 -0.026753,-0.0851 -0.030298,-0.12232 -0.029653,-0.30634 6.232e-4,-0.17813 0.00537,-0.22215 0.028901,-0.29403 0.015472,-0.0465 0.025786,-0.0869 0.022777,-0.0899 -0.010746,-0.0108 -0.116186,0.0896 -0.1599251,0.15117 -0.067687,0.0952 -0.088531,0.1812 -0.088423,0.3637 1.181e-4,0.1535 0.026001,0.32666 0.066076,0.44125 0.015256,0.0436 0.014613,0.0492 -0.00645,0.0558 -0.062208,0.0198 -0.5531251,0.0327 -1.2484797,0.0329 l -0.7692201,2.5e-4 -0.1268871,-0.0991 -0.1268979,-0.0991 -0.032017,0.0632 c -0.071877,0.14165 -0.2544512,0.33421 -0.3995818,0.42132 -0.087564,0.0525 -0.2108842,0.10378 -0.3095896,0.1285 -0.1107174,0.0277 -0.3700036,0.034 -0.46996619,0.0111 z m 0.39159898,-0.34075 c 0.1983244,-0.0514 0.3621603,-0.17063 0.4716206,-0.34322 0.038786,-0.0611 0.1018532,-0.23302 0.089928,-0.24496 -0.00322,-0.003 -0.1797908,0.002 -0.3919428,0.0117 -0.2121626,0.01 -0.3879675,0.0157 -0.3906965,0.013 -0.00859,-0.009 -0.054257,-0.27195 -0.048563,-0.27768 0.00322,-0.003 0.1799628,-0.0424 0.3934793,-0.088 0.2135271,-0.0455 0.3921469,-0.0867 0.3969387,-0.0914 0.019984,-0.02 -0.07306,-0.16299 -0.1666831,-0.25602 -0.1564333,-0.15545 -0.3156171,-0.22204 -0.5314865,-0.22232 -0.2156867,-2.7e-4 -0.39303868,0.0726 -0.54494874,0.22395 -0.14167099,0.14117 -0.22044634,0.33245 -0.22044634,0.53527 0,0.12668 0.0204137,0.212 0.0809027,0.33873 0.0899276,0.18841 0.26743006,0.33625 0.47555297,0.39616 0.099275,0.0286 0.28568411,0.0308 0.38642031,0.004 z m 4.5083307,-0.001 c 0.2114858,-0.0545 0.3984,-0.20693 0.4905302,-0.39988 0.060488,-0.12673 0.080902,-0.21205 0.080902,-0.33874 0,-0.12669 -0.020414,-0.21201 -0.080902,-0.33873 -0.091432,-0.19161 -0.28028,-0.34618 -0.4893269,-0.40064 -0.096804,-0.0252 -0.2915074,-0.0255 -0.3849591,-6.9e-4 -0.2481123,0.066 -0.4600923,0.26955 -0.5389751,0.51748 -0.037711,0.1187 -0.037711,0.32643 0,0.44515 0.078324,0.24634 0.2922273,0.45135 0.5383842,0.51612 0.097233,0.0255 0.2850288,0.0255 0.3843467,-7e-5 z M 2.504096,296.11057 c 0.085308,-7e-5 0.089283,-10e-4 0.069621,-0.0229 -0.011389,-0.0125 -0.032877,-0.0514 -0.047811,-0.0859 l -0.027075,-0.0631 -0.1080853,0.009 c -0.059414,0.005 -0.1102339,0.0109 -0.1128447,0.0133 -0.00215,0.002 -0.012356,0.0406 -0.021703,0.0852 l -0.016868,0.0811 0.087135,-0.009 c 0.047918,-0.004 0.1278112,-0.009 0.177524,-0.009 z"
       style="fill:none;stroke:#ff0000;stroke-width:0.15901189;stroke-miterlimit:4;stroke-dasharray:none;stroke-opacity:1" />
  </g>
</svg>
