<?xml version="1.0" encoding="UTF-8" standalone="no"?>
<svg
   xmlns:dc="http://purl.org/dc/elements/1.1/"
   xmlns:cc="http://creativecommons.org/ns#"
   xmlns:rdf="http://www.w3.org/1999/02/22-rdf-syntax-ns#"
   xmlns:svg="http://www.w3.org/2000/svg"
   xmlns="http://www.w3.org/2000/svg"
   id="svg8"
   version="1.1"
   viewBox="0 0 11.641666 3.9687501"
   height="15"
   width="44">
  <defs
     id="defs2" />
  <metadata
     id="metadata5">
    <rdf:RDF>
      <cc:Work
         rdf:about="">
        <dc:format>image/svg+xml</dc:format>
        <dc:type
           rdf:resource="http://purl.org/dc/dcmitype/StillImage" />
        <dc:title></dc:title>
      </cc:Work>
    </rdf:RDF>
  </metadata>
  <g
     transform="translate(0,-293.03124)"
     id="layer1">
    <path
       id="path947"
       d="m 2.4207018,296.90741 c -0.29288,-0.0558 -0.56672,-0.27216 -0.68595,-0.54207 -0.0723,-0.16354 -0.0941,-0.40956 -0.0519,-0.58692 0.0984,-0.41522 0.47477,-0.70861 0.90897,-0.70861 0.15068,0 0.2566901,0.0258 0.41455,0.10102 0.1702999,0.0811 0.3312801,0.24247 0.41328,0.41434 0.0695,0.1456 0.0932,0.25193 0.0929,0.41514 -2.911e-4,0.14806 -0.0301,0.27294 -0.0991,0.41514 -0.0688,0.14197 -0.2546001,0.32997 -0.3914799,0.39612 -0.16486,0.0797 -0.2246701,0.0944 -0.4008101,0.0987 -0.0906,0.002 -0.18072,9.2e-4 -0.20041,-0.003 z m 7.1792402,-0.014 c -0.34035,-0.0823 -0.6262402,-0.38524 -0.6874002,-0.72846 -0.025501,-0.14307 -0.025501,-0.20011 -2.646e-4,-0.34128 0.0772,-0.43282 0.46536,-0.75381 0.9116999,-0.75381 0.4261599,0 0.7950099,0.28516 0.9000399,0.69585 0.106,0.41471 -0.0956,0.86072 -0.47385,1.04735 -0.0662,0.0328 -0.1625,0.0693 -0.21366,0.0813 -0.1154299,0.027 -0.3228098,0.0265 -0.4364597,-9.5e-4 z m -6.0596103,-0.65329 c 0.024601,-0.10495 0.019801,-0.37881 -0.008,-0.48314 -0.11918,-0.43798 -0.49784,-0.73007 -0.9465599,-0.73007 -0.2724501,0 -0.4837301,0.0886 -0.68069,0.28559 -0.199829,0.19984 -0.285579,0.40522 -0.285579,0.68397 v 0.14703 h -0.0654 c -0.12162,0 -0.48473,-0.0295 -0.70769,-0.0575 -0.36255,-0.0455 -0.48897,-0.0875 -0.54919,-0.18259 -0.0186,-0.0293 -0.0672,-0.0845 -0.10798,-0.12255 -0.0697,-0.0651 -0.0751,-0.0751 -0.0914,-0.17178 -0.009,-0.0564 -0.0171,-0.20247 -0.0168,-0.3245 2.7e-4,-0.19461 0.003,-0.23143 0.0316,-0.29948 0.0173,-0.0427 0.0502,-0.0974 0.0731,-0.12168 0.0403,-0.0425 0.0421,-0.0502 0.0492,-0.21588 0.004,-0.11657 0.0157,-0.19369 0.0335,-0.23996 0.0254,-0.0663 0.0254,-0.0696 -0.001,-0.11847 l -0.0272,-0.0503 0.0425,-0.0605 0.0425,-0.0605 0.22841,-0.009 c 0.12566,-0.005 0.2928201,-0.0202 0.3715501,-0.0334 0.0788,-0.0132 0.2162699,-0.0328 0.3056299,-0.0435 0.1518,-0.0182 0.17524,-0.0255 0.35788,-0.11207 0.26226,-0.1243 0.5987,-0.26205 1.0901101,-0.44632 0.2244,-0.0841 0.42086,-0.15969 0.4365998,-0.1679 0.0413,-0.0215 0.0496,-0.0392 0.0499,-0.10586 2.1e-4,-0.0537 0.003,-0.061 0.0452,-0.0752 0.0828,-0.0289 0.1638202,-0.0192 0.2508602,0.0299 l 0.0809,0.0456 0.2790899,-0.0181 c 0.67407,-0.0436 1.4834101,-0.0442 1.8500501,-10e-4 0.3315499,0.0388 0.6268299,0.10275 0.8367199,0.18115 0.2543601,0.095 1.1232401,0.56253 1.57881,0.84953 l 0.0758,0.0477 0.4682601,0.0112 c 0.2575499,0.006 0.52623,0.0179 0.5970899,0.0263 0.25478,0.0301 0.5486001,0.0751 0.8031802,0.12303 0.72943,0.13736 1.15147,0.26503 1.3325,0.40311 0.14504,0.11062 0.17749,0.3345 0.11165,0.76988 -0.0171,0.11293 -0.0186,0.17263 -0.007,0.28346 0.0134,0.12684 0.0122,0.1455 -0.0134,0.19334 -0.0412,0.0805 -0.0913,0.11875 -0.18293,0.1401 -0.0922,0.0215 -0.48643,0.0584 -0.49819,0.0466 -0.003,-0.004 -10e-4,-0.0416 0.007,-0.0833 0.0208,-0.10994 0.0173,-0.29393 -0.008,-0.40118 -0.062,-0.2645 -0.26699,-0.52331 -0.50749,-0.64014 -0.17687,-0.0859 -0.2938903,-0.10993 -0.4905202,-0.10063 -0.1255101,0.006 -0.18386,0.016 -0.26592,0.0461 -0.25435,0.0931 -0.4419402,0.25835 -0.56076,0.49392 -0.0867,0.17184 -0.1192901,0.4172 -0.08,0.60161 0.0122,0.0591 0.023,0.1122 0.023,0.1181 10e-6,0.006 -1.2071401,0.0107 -2.68257,0.0107 H 3.5260717 Z m 3.6353001,-1.94329 c -0.013399,-0.0581 -0.003,-0.1449 0.018,-0.17902 0.0136,-0.0208 0.0511,-0.0489 0.0832,-0.0626 l 0.058501,-0.0248 -0.0415,-0.0328 c -0.1456899,-0.11483 -0.6394,-0.39454 -0.7870198,-0.44588 -0.24282,-0.0845 -0.7858501,-0.18322 -1.0758001,-0.19565 l -0.18934,-0.008 0.0288,0.1058 c 0.0492,0.18032 0.2652401,0.81312 0.2931602,0.85829 0.004,0.009 0.31515,0.0122 0.8127299,0.01 0.7062901,-0.003 0.80371,-0.006 0.7994499,-0.0252 z m -2.09232,-0.009 c 0,-0.0127 -0.0156,-0.11738 -0.0346,-0.23262 -0.0191,-0.11522 -0.0521,-0.3212 -0.0736,-0.45769 -0.0288,-0.18322 -0.0448,-0.25037 -0.0608,-0.25655 -0.0337,-0.0129 -0.7741902,0.0225 -0.9833002,0.0471 -0.5375198,0.0631 -0.9271198,0.16381 -1.1501199,0.29731 -0.0845,0.0507 -0.1128199,0.0928 -0.12592,0.18719 -0.0115,0.0828 0.0395,0.19672 0.1240499,0.27795 0.0493,0.0473 0.0798,0.0631 0.15572,0.0803 0.1878402,0.0425 0.8647102,0.0719 1.7943502,0.0778 0.31745,0.002 0.3542901,-1.1e-4 0.3542901,-0.0208 z"
       style="fill:none;fill-opacity:1;stroke:#ff0000;stroke-width:0.1620661;stroke-miterlimit:4;stroke-dasharray:none;stroke-opacity:1" />
  </g>
</svg>
