<?xml version="1.0" encoding="UTF-8" standalone="no"?>
<!-- Created with Inkscape (http://www.inkscape.org/) -->

<svg
   xmlns:dc="http://purl.org/dc/elements/1.1/"
   xmlns:cc="http://creativecommons.org/ns#"
   xmlns:rdf="http://www.w3.org/1999/02/22-rdf-syntax-ns#"
   xmlns:svg="http://www.w3.org/2000/svg"
   xmlns="http://www.w3.org/2000/svg"
   xmlns:sodipodi="http://sodipodi.sourceforge.net/DTD/sodipodi-0.dtd"
   xmlns:inkscape="http://www.inkscape.org/namespaces/inkscape"
   width="12.5"
   height="12.5"
   viewBox="0 0 3.3072915 3.3072918"
   version="1.1"
   id="svg8"
   inkscape:version="0.92.4 (5da689c313, 2019-01-14)"
   sodipodi:docname="icon-location.svg">
  <defs
     id="defs2" />
  <sodipodi:namedview
     id="base"
     pagecolor="#ffffff"
     bordercolor="#666666"
     borderopacity="1.0"
     inkscape:pageopacity="0.0"
     inkscape:pageshadow="2"
     inkscape:zoom="44.8"
     inkscape:cx="6.3229992"
     inkscape:cy="4.9415791"
     inkscape:document-units="mm"
     inkscape:current-layer="layer1"
     showgrid="false"
     units="px"
     inkscape:window-width="1920"
     inkscape:window-height="1001"
     inkscape:window-x="-9"
     inkscape:window-y="-9"
     inkscape:window-maximized="1" />
  <metadata
     id="metadata5">
    <rdf:RDF>
      <cc:Work
         rdf:about="">
        <dc:format>image/svg+xml</dc:format>
        <dc:type
           rdf:resource="http://purl.org/dc/dcmitype/StillImage" />
        <dc:title></dc:title>
      </cc:Work>
    </rdf:RDF>
  </metadata>
  <g
     inkscape:label="Camada 1"
     inkscape:groupmode="layer"
     id="layer1"
     transform="translate(0,-293.69268)">
    <path
       style="fill:#f51445;fill-opacity:1;stroke-width:0.00518881"
       d="m 1.5344756,296.66545 c -0.036721,-0.0192 -0.21707,-0.22639 -0.3468322,-0.39852 -0.32999094,-0.43775 -0.51277284,-0.85576 -0.52865719,-1.20899 -0.0100745,-0.22411 0.0592582,-0.44418 0.20027115,-0.63563 0.0376887,-0.0512 0.14794684,-0.16158 0.20023424,-0.20051 0.2007606,-0.14949 0.4351268,-0.21968 0.6680619,-0.20008 0.2332264,0.0196 0.4406599,0.11478 0.6128563,0.28111 0.2232857,0.21569 0.3333543,0.50883 0.3042657,0.81034 -0.031788,0.32949 -0.1944339,0.67053 -0.4871971,1.02159 -0.1492767,0.179 -0.3694319,0.39443 -0.5183405,0.50722 -0.044164,0.0335 -0.07311,0.04 -0.1046623,0.0234 z m 0.1225779,-0.25324 c 0.091675,-0.0797 0.2468643,-0.23443 0.3253274,-0.32429 0.3431501,-0.39305 0.5139532,-0.77171 0.4996936,-1.10781 -0.00957,-0.22561 -0.091522,-0.41352 -0.2456269,-0.56323 -0.1507075,-0.14641 -0.3286943,-0.2218 -0.546517,-0.2315 -0.1836803,-0.008 -0.3569296,0.0393 -0.5090976,0.13952 -0.065907,0.0434 -0.1727554,0.15025 -0.21616087,0.21616 -0.20211143,0.30689 -0.18603141,0.6853 0.0486832,1.14568 0.068083,0.13354 0.1622926,0.28548 0.2632265,0.42452 0.09365,0.12908 0.2937302,0.36868 0.3045395,0.36479 0.00238,-8.8e-4 0.036554,-0.0297 0.075932,-0.0638 z m -0.078682,-1.07447 c -0.079079,-0.0175 -0.1527661,-0.0585 -0.2129464,-0.11875 -0.042968,-0.043 -0.070932,-0.0839 -0.093964,-0.13768 -0.042739,-0.0997 -0.042739,-0.2013 0,-0.30101 0.023032,-0.0538 0.050997,-0.0948 0.093964,-0.13768 0.061764,-0.0618 0.1357707,-0.10233 0.2166193,-0.11875 0.050665,-0.0106 0.092464,-0.0106 0.1431295,0 0.080849,0.0164 0.1548551,0.0571 0.2166193,0.11875 0.1540378,0.15403 0.1675117,0.37081 0.033529,0.5394 -0.055361,0.0696 -0.1437621,0.12868 -0.2257197,0.1508 -0.045685,0.0119 -0.1271611,0.0147 -0.1712305,0.005 z m 0.1422092,-0.16586 c 0.1120626,-0.0265 0.1819377,-0.11901 0.1819377,-0.24107 0,-0.14696 -0.1019471,-0.24891 -0.2489092,-0.24891 -0.1469626,0 -0.2489092,0.10194 -0.2489092,0.24891 0,0.12034 0.070307,0.21434 0.1802751,0.24099 0.039725,0.009 0.094952,0.009 0.1356056,8e-5 z"
       id="path844"
       inkscape:connector-curvature="0" />
  </g>
</svg>
