<?xml version="1.0" encoding="UTF-8" standalone="no"?>
<svg
   xmlns:dc="http://purl.org/dc/elements/1.1/"
   xmlns:cc="http://creativecommons.org/ns#"
   xmlns:rdf="http://www.w3.org/1999/02/22-rdf-syntax-ns#"
   xmlns:svg="http://www.w3.org/2000/svg"
   xmlns="http://www.w3.org/2000/svg"
   xmlns:sodipodi="http://sodipodi.sourceforge.net/DTD/sodipodi-0.dtd"
   xmlns:inkscape="http://www.inkscape.org/namespaces/inkscape"
   width="12"
   height="12"
   viewBox="0 0 12 12"
   version="1.1"
   id="svg16"
   sodipodi:docname="dropdown-menu-arrow-down.svg"
   inkscape:version="0.92.4 (5da689c313, 2019-01-14)">
  <metadata
     id="metadata20">
    <rdf:RDF>
      <cc:Work
         rdf:about="">
        <dc:format>image/svg+xml</dc:format>
        <dc:type
           rdf:resource="http://purl.org/dc/dcmitype/StillImage" />
        <dc:title>Icons/Arrow/Back</dc:title>
      </cc:Work>
    </rdf:RDF>
  </metadata>
  <sodipodi:namedview
     pagecolor="#ffffff"
     bordercolor="#666666"
     borderopacity="1"
     objecttolerance="10"
     gridtolerance="10"
     guidetolerance="10"
     inkscape:pageopacity="0"
     inkscape:pageshadow="2"
     inkscape:window-width="1920"
     inkscape:window-height="1001"
     id="namedview18"
     showgrid="false"
     inkscape:zoom="32"
     inkscape:cx="1.6683467"
     inkscape:cy="7.5333993"
     inkscape:window-x="-9"
     inkscape:window-y="-9"
     inkscape:window-maximized="1"
     inkscape:current-layer="svg16" />
  <!-- Generator: Sketch 51.3 (57544) - http://www.bohemiancoding.com/sketch -->
  <title
     id="title2">Icons/Arrow/Back</title>
  <desc
     id="desc4">Created with Sketch.</desc>
  <defs
     id="defs7">
    <path
       d="M 20.9987,11 H 5.4127 l 5.293,-5.293 c 0.391,-0.391 0.391,-1.023 0,-1.414 -0.391,-0.391 -1.023,-0.391 -1.414,0 l -7,6.999 c -0.092,0.093 -0.165,0.204 -0.216,0.326 -0.101,0.244 -0.101,0.52 0,0.764 0.051,0.122 0.124,0.233 0.216,0.326 l 7,6.999 c 0.195,0.195 0.451,0.293 0.707,0.293 0.256,0 0.512,-0.098 0.707,-0.293 0.391,-0.391 0.391,-1.023 0,-1.414 L 5.4127,13 h 15.586 c 0.552,0 1,-0.448 1,-1 0,-0.552 -0.448,-1 -1,-1"
       id="path-1"
       inkscape:connector-curvature="0" />
  </defs>
  <text
     xml:space="preserve"
     style="font-style:normal;font-weight:normal;font-size:40px;line-height:1.25;font-family:sans-serif;letter-spacing:0px;word-spacing:0px;fill:#000000;fill-opacity:1;stroke:none"
     x="10.650796"
     y="-3.3353786"
     id="text44"><tspan
       sodipodi:role="line"
       id="tspan42"
       x="10.650796"
       y="33.157833"></tspan></text>
  <path
     sodipodi:type="star"
     style="fill:#41414d;fill-opacity:1"
     id="path868"
     sodipodi:sides="3"
     sodipodi:cx="-1.5467972"
     sodipodi:cy="-7.6771207"
     sodipodi:r1="7.1099072"
     sodipodi:r2="3.5549536"
     sodipodi:arg1="0.52359878"
     sodipodi:arg2="1.5707963"
     inkscape:flatsided="true"
     inkscape:rounded="0.06"
     inkscape:randomized="0"
     d="m 4.610563,-4.1221671 c -0.3694416,0.6398917 -11.9452788,0.6398916 -12.3147204,0 -0.3694416,-0.6398917 5.418477,-10.6648609 6.1573603,-10.6648609 0.7388832,0 6.5268018,10.0249693 6.1573601,10.6648609 z"
     inkscape:transform-center-y="-1.0406801"
     transform="matrix(0.70653177,0,0,-0.46838529,7.0928613,1.6839991)" />
</svg>
