<?xml version="1.0" encoding="utf-8"?>
<!-- Generator: Adobe Illustrator 23.0.1, SVG Export Plug-In . SVG Version: 6.00 Build 0)  -->
<svg version="1.1" id="Camada_1" xmlns="http://www.w3.org/2000/svg" xmlns:xlink="http://www.w3.org/1999/xlink" x="0px" y="0px"
	 viewBox="0 0 18 18" style="enable-background:new 0 0 18 18;" xml:space="preserve">
<style type="text/css">
	.st0{fill-rule:evenodd;clip-rule:evenodd;fill:#696977;}
	.st1{filter:url(#Adobe_OpacityMaskFilter);}
	.st2{fill-rule:evenodd;clip-rule:evenodd;fill:#FFFFFF;}
	.st3{mask:url(#mask-2_1_);}
</style>
<title>Icons/Message/1 Empty</title>
<desc>Created with Sketch.</desc>
<g id="Symbols">
	<g transform="translate(-1830.000000, -23.000000)">
		<g transform="translate(1827.000000, 20.000000)">
			<g id="Combined-Shape">
				<path class="st0" d="M6,5C5.4,5,5,5.4,5,6v8.6l1.3-1.3C6.5,13.1,6.7,13,7,13h8c0.6,0,1-0.4,1-1V6c0-0.6-0.4-1-1-1H6z M4,18
					c-0.1,0-0.3,0-0.4-0.1C3.2,17.8,3,17.4,3,17V6c0-1.7,1.3-3,3-3h9c1.7,0,3,1.3,3,3v6c0,1.7-1.3,3-3,3H7.4l-2.7,2.7
					C4.5,17.9,4.3,18,4,18z M20,21c-0.3,0-0.5-0.1-0.7-0.3L16.6,18H9c-0.6,0-1-0.4-1-1s0.4-1,1-1h8c0.3,0,0.5,0.1,0.7,0.3l1.3,1.3
					V10c0-0.6,0.4-1,1-1s1,0.4,1,1v10c0,0.4-0.2,0.8-0.6,0.9C20.3,21,20.1,21,20,21z"/>
			</g>
			<defs>
				<filter id="Adobe_OpacityMaskFilter" filterUnits="userSpaceOnUse" x="0" y="0" width="24" height="24">
					<feColorMatrix  type="matrix" values="1 0 0 0 0  0 1 0 0 0  0 0 1 0 0  0 0 0 1 0"/>
				</filter>
			</defs>
			<mask maskUnits="userSpaceOnUse" x="0" y="0" width="24" height="24" id="mask-2_1_">
				<g class="st1">
					<path id="path-1_1_" class="st2" d="M6,5C5.4,5,5,5.4,5,6v8.6l1.3-1.3C6.5,13.1,6.7,13,7,13h8c0.6,0,1-0.4,1-1V6
						c0-0.6-0.4-1-1-1H6z M4,18c-0.1,0-0.3,0-0.4-0.1C3.2,17.8,3,17.4,3,17V6c0-1.7,1.3-3,3-3h9c1.7,0,3,1.3,3,3v6c0,1.7-1.3,3-3,3
						H7.4l-2.7,2.7C4.5,17.9,4.3,18,4,18z M20,21c-0.3,0-0.5-0.1-0.7-0.3L16.6,18H9c-0.6,0-1-0.4-1-1s0.4-1,1-1h8
						c0.3,0,0.5,0.1,0.7,0.3l1.3,1.3V10c0-0.6,0.4-1,1-1s1,0.4,1,1v10c0,0.4-0.2,0.8-0.6,0.9C20.3,21,20.1,21,20,21z"/>
				</g>
			</mask>
			<g class="st3">
				<rect id="Rectangle" class="st0" width="24" height="24"/>
			</g>
		</g>
	</g>
</g>
</svg>
