<?xml version="1.0" encoding="utf-8"?>
<!-- Generator: Adobe Illustrator 23.0.1, SVG Export Plug-In . SVG Version: 6.00 Build 0)  -->
<svg version="1.1" id="Camada_1" xmlns="http://www.w3.org/2000/svg" xmlns:xlink="http://www.w3.org/1999/xlink" x="0px" y="0px"
	 viewBox="0 0 16.8 19.6" style="enable-background:new 0 0 16.8 19.6;" xml:space="preserve">
<style type="text/css">
	.st0{fill-rule:evenodd;clip-rule:evenodd;fill:#F3123C;}
</style>
<title>4D795FF7-95C1-492B-8F86-DA8017B0B207</title>
<desc>Created with sketchtool.</desc>
<g id="Page-1">
	<g id="OD_01" transform="translate(-1880.000000, -25.000000)">
		<g transform="translate(0.000000, 2.000000)">
			<g id="Notificação" transform="translate(1876.000000, 14.000000)">
				<g transform="translate(0.000000, 6.000000)">
					<g id="Fill-1">
						<path class="st0" d="M7.3,17.3l1-1.4c0.1-0.2,0.2-0.4,0.2-0.6v-4c0-2.2,1.8-4,4-4c2.2,0,4,1.8,4,4v4c0,0.2,0.1,0.4,0.2,0.6
							l1,1.4H7.3z M12.4,20.3c-0.6,0-1-0.4-1-1h2C13.4,19.9,13,20.3,12.4,20.3L12.4,20.3z M20.2,17.8L18.4,15v-3.7
							c0-2.2-1.2-4.2-3-5.2c-0.1-1.6-1.4-2.8-3-2.8s-2.9,1.2-3,2.8c-1.8,1-3,3-3,5.2V15l-1.8,2.7c-0.2,0.3-0.2,0.7,0,1
							c0.2,0.3,0.5,0.5,0.9,0.5h4c0,1.7,1.3,3,3,3c1.7,0,3-1.3,3-3h4c0.4,0,0.7-0.2,0.9-0.5C20.5,18.5,20.4,18.1,20.2,17.8
							L20.2,17.8z"/>
					</g>
				</g>
			</g>
		</g>
	</g>
</g>
</svg>
